# File created by Blade
# Date/Time:  Tue Apr 07 20:35:32 2015
# Frame Rate: 120.000 fps
#------------------------------------------------------
:FULLY-SPECIFIED
:DEGREES
1929
root 3.158789 33.655960 -4.530542 58.360885 -0.962105 -15.564732
Spine -31.043877 2.463658 8.200420
Head -16.629631 2.292317 5.704392
LeftShoulder -23.363625 39.075513 18.929768
LeftArm 66.315641 -59.528031 -81.474518
LeftForeArm 7.185792 -0.000000 12.487214
LeftHand 11.246090 0.000000 15.233914
LeftHandThumb1 -26.253704 0.000000 33.147579
RightShoulder -9.283976 -5.157016 -24.972747
RightArm 3.975850 -0.084358 60.004711
RightForeArm 13.547287 -0.000000 32.003690
RightHand 5.514960 -0.000000 5.699926
RightHandThumb1 -24.326973 -0.000000 -32.862282
LeftUpLeg -56.494854 -4.053167 27.835068
LeftLeg 1.531441 -0.000000 -0.000000
LeftFoot -1.314602 11.127168 -9.761757
LeftToeBase -11.466682 -0.000000 0.000000
RightUpLeg 5.082654 4.756519 -12.887729
RightLeg 75.041129 -0.000000 -0.000000
RightFoot 45.036953 0.420680 -1.309696
RightToeBase 33.333562 -0.000000 -0.000000
1930
root 3.173173 33.613105 -4.536290 58.496791 -0.534587 -14.849802
Spine -31.405372 1.725593 8.338043
Head -16.637395 2.344087 5.432220
LeftShoulder -23.339621 39.103293 18.984189
LeftArm 66.736728 -59.632249 -81.802258
LeftForeArm 7.171796 0.000000 12.577815
LeftHand 11.296824 -0.000000 15.249353
LeftHandThumb1 -26.253704 0.000000 33.147579
RightShoulder -9.606217 -5.263026 -25.053387
RightArm 3.784691 -0.134330 59.963446
RightForeArm 13.494344 -0.000000 32.201027
RightHand 5.965543 0.000000 6.262349
RightHandThumb1 -24.326973 -0.000000 -32.862282
LeftUpLeg -56.978964 -4.608844 27.661267
LeftLeg 1.359937 -0.000000 -0.000000
LeftFoot -1.124652 10.905201 -9.347982
LeftToeBase -11.700794 -0.000000 0.000000
RightUpLeg 4.885403 4.968847 -12.996126
RightLeg 75.654608 -0.000000 -0.000000
RightFoot 45.089906 0.632226 -1.288534
RightToeBase 33.302011 -0.000000 -0.000000
1931
root 3.184646 33.574257 -4.544198 58.628427 -0.133820 -14.205830
Spine -31.735792 1.069984 8.491415
Head -16.687954 2.379489 5.166142
LeftShoulder -23.182977 38.987827 19.153516
LeftArm 66.751681 -59.772124 -81.841291
LeftForeArm 7.080312 0.000000 12.744328
LeftHand 11.277816 0.000000 15.392902
LeftHandThumb1 -26.253704 0.000000 33.147579
RightShoulder -9.928544 -5.358098 -25.074357
RightArm 3.618471 -0.188973 59.861065
RightForeArm 13.624904 -0.000000 32.452612
RightHand 5.933465 -0.000000 5.947085
RightHandThumb1 -24.326973 -0.000000 -32.862282
LeftUpLeg -57.396487 -5.118184 27.518831
LeftLeg 1.138149 -0.000000 -0.000000
LeftFoot -0.926625 10.762103 -8.958699
LeftToeBase -12.017783 -0.000000 0.000000
RightUpLeg 4.665938 5.245507 -13.081455
RightLeg 76.342906 -0.000000 -0.000000
RightFoot 45.081958 0.833035 -1.393190
RightToeBase 33.234945 -0.000000 -0.000000
1932
root 3.193040 33.535751 -4.550936 58.711573 0.290617 -13.603200
Spine -31.997792 0.452157 8.676391
Head -16.771417 2.383142 4.914339
LeftShoulder -23.085548 38.948876 19.244906
LeftArm 67.066281 -59.892405 -82.102849
LeftForeArm 7.090081 0.000000 12.912943
LeftHand 11.213244 -0.000000 15.509198
LeftHandThumb1 -26.253704 0.000000 33.147579
RightShoulder -10.276417 -5.474716 -25.086898
RightArm 3.455925 -0.209777 59.790625
RightForeArm 13.561782 -0.000000 32.747703
RightHand 5.875707 -0.000000 6.025174
RightHandThumb1 -24.326973 -0.000000 -32.862282
LeftUpLeg -57.735635 -5.653729 27.419578
LeftLeg 0.888838 -0.000000 -0.000000
LeftFoot -0.694087 10.731554 -8.394502
LeftToeBase -12.052675 -0.000000 0.000000
RightUpLeg 4.495478 5.555577 -13.122185
RightLeg 77.045011 -0.000000 -0.000000
RightFoot 45.083917 0.917184 -1.389000
RightToeBase 33.476990 -0.000000 -0.000000
1933
root 3.204878 33.498316 -4.558623 58.841371 0.648786 -12.999379
Spine -32.309359 -0.141499 8.811529
Head -16.848617 2.428353 4.692253
LeftShoulder -22.976991 38.930650 19.346613
LeftArm 67.324386 -60.015572 -82.305736
LeftForeArm 7.030259 -0.000000 13.065277
LeftHand 11.186548 -0.000000 15.785609
LeftHandThumb1 -26.253704 0.000000 33.147579
RightShoulder -10.568165 -5.531667 -25.100226
RightArm 3.192776 -0.270444 59.714846
RightForeArm 13.384703 -0.000000 33.090501
RightHand 6.089124 -0.000000 6.472782
RightHandThumb1 -24.326973 -0.000000 -32.862282
LeftUpLeg -58.086200 -6.183383 27.284819
LeftLeg 0.606564 -0.000000 -0.000000
LeftFoot -0.417253 10.818428 -7.721466
LeftToeBase -12.432216 -0.000000 0.000000
RightUpLeg 4.277677 5.849364 -13.263052
RightLeg 77.770037 -0.000000 -0.000000
RightFoot 45.115684 1.030418 -1.508658
RightToeBase 33.336731 -0.000000 -0.000000
1934
root 3.214162 33.460928 -4.562654 58.899903 1.074809 -12.443895
Spine -32.529328 -0.714781 9.058854
Head -16.969065 2.444111 4.383172
LeftShoulder -22.899224 38.899765 19.378175
LeftArm 67.519018 -60.103103 -82.378636
LeftForeArm 6.951466 -0.000000 13.158785
LeftHand 11.279684 -0.000000 15.951538
LeftHandThumb1 -26.253704 0.000000 33.147579
RightShoulder -10.864544 -5.675770 -25.110347
RightArm 3.018306 -0.253432 59.631822
RightForeArm 13.356489 -0.000000 33.450893
RightHand 5.885604 -0.000000 6.202253
RightHandThumb1 -24.326973 -0.000000 -32.862282
LeftUpLeg -58.358518 -6.698311 27.158593
LeftLeg 0.342754 -0.000000 -0.000000
LeftFoot -0.233488 10.846702 -7.074129
LeftToeBase -12.695579 -0.000000 0.000000
RightUpLeg 4.141771 6.142775 -13.309733
RightLeg 78.482393 -0.000000 -0.000000
RightFoot 45.177655 1.187566 -1.653443
RightToeBase 33.255111 -0.000000 -0.000000
1935
root 3.221928 33.426775 -4.569807 58.996427 1.482093 -11.969598
Spine -32.771916 -1.208387 9.343311
Head -17.080863 2.491883 4.071979
LeftShoulder -22.856773 38.890977 19.386102
LeftArm 67.913464 -60.184941 -82.626761
LeftForeArm 6.950669 -0.000000 13.185439
LeftHand 11.465982 0.000000 16.165082
LeftHandThumb1 -26.253704 0.000000 33.147579
RightShoulder -11.130428 -5.793031 -25.133845
RightArm 2.807372 -0.212209 59.576564
RightForeArm 13.284910 -0.000000 33.788649
RightHand 5.786699 -0.000000 6.331203
RightHandThumb1 -24.326973 -0.000000 -32.862282
LeftUpLeg -58.628683 -7.147689 27.100981
LeftLeg 0.087539 -0.000000 -0.000000
LeftFoot -0.061187 10.909052 -6.450777
LeftToeBase -12.785828 -0.000000 0.000000
RightUpLeg 3.950768 6.538304 -13.321613
RightLeg 79.252127 -0.000000 -0.000000
RightFoot 45.141429 1.361764 -1.732836
RightToeBase 33.204639 -0.000000 -0.000000
1936
root 3.226206 33.393152 -4.574891 59.095059 1.911183 -11.521138
Spine -33.039830 -1.655397 9.644413
Head -17.142864 2.492686 3.775824
LeftShoulder -22.742563 38.852709 19.447298
LeftArm 67.973055 -60.206264 -82.496288
LeftForeArm 6.853293 0.000000 13.198796
LeftHand 11.477282 -0.000000 16.354718
LeftHandThumb1 -26.253704 0.000000 33.147579
RightShoulder -11.419156 -6.004366 -25.151853
RightArm 2.698295 -0.157169 59.540177
RightForeArm 13.302032 -0.000000 34.015596
RightHand 5.851888 -0.000000 6.456004
RightHandThumb1 -24.326973 -0.000000 -32.862282
LeftUpLeg -58.883741 -7.582276 27.072790
LeftLeg -0.171448 -0.000000 0.000000
LeftFoot 0.088274 10.955854 -5.830263
LeftToeBase -12.852961 -0.000000 0.000000
RightUpLeg 3.775308 6.944517 -13.293841
RightLeg 80.018977 -0.000000 -0.000000
RightFoot 45.135962 1.565855 -1.790809
RightToeBase 33.285802 -0.000000 -0.000000
1937
root 3.233153 33.362253 -4.580534 59.214795 2.318870 -11.104967
Spine -33.317551 -2.095261 9.982935
Head -17.219920 2.554766 3.455086
LeftShoulder -22.722962 38.837196 19.454031
LeftArm 68.157059 -60.199222 -82.481851
LeftForeArm 6.897086 -0.000000 13.171802
LeftHand 11.574072 -0.000000 16.315928
LeftHandThumb1 -26.253704 0.000000 33.147579
RightShoulder -11.650876 -6.169492 -25.181768
RightArm 2.574198 -0.141634 59.508432
RightForeArm 13.380239 -0.000000 34.204432
RightHand 5.836948 -0.000000 6.603631
RightHandThumb1 -24.326973 -0.000000 -32.862282
LeftUpLeg -59.140959 -7.954030 27.008734
LeftLeg -0.412133 -0.000000 0.000000
LeftFoot 0.276929 10.961467 -5.240620
LeftToeBase -12.963048 -0.000000 0.000000
RightUpLeg 3.558740 7.386012 -13.294094
RightLeg 80.816677 -0.000000 -0.000000
RightFoot 45.241307 1.847625 -1.787272
RightToeBase 33.321987 -0.000000 -0.000000
